<svg width="40" height="38" viewBox="0 0 40 38" fill="none" xmlns="http://www.w3.org/2000/svg">
<path d="M6.79993 30.5048C8.80777 29.1863 10.8508 28.1493 12.929 27.3939C15.0071 26.6384 17.2808 26.2607 19.75 26.2607C22.2192 26.2607 24.4943 26.6384 26.5753 27.3939C28.6563 28.1493 30.7007 29.1863 32.7085 30.5048C34.2455 28.9405 35.4523 27.1711 36.3286 25.1967C37.205 23.2222 37.6432 21.0733 37.6432 18.75C37.6432 14.0144 35.908 9.99932 32.4377 6.70474C28.9674 3.41012 24.7382 1.76281 19.75 1.76281C14.7618 1.76281 10.5326 3.41012 7.06233 6.70474C3.592 9.99932 1.85683 14.0144 1.85683 18.75C1.85683 21.0733 2.29641 23.2222 3.17558 25.1967C4.05479 27.1711 5.2629 28.9405 6.79993 30.5048ZM19.7414 19.6314C17.9043 19.6314 16.3582 19.0328 15.103 17.8357C13.8477 16.6385 13.2201 15.168 13.2201 13.424C13.2201 11.68 13.8506 10.2121 15.1116 9.02042C16.3726 7.82875 17.9216 7.23292 19.7586 7.23292C21.5957 7.23292 23.1418 7.83149 24.397 9.02865C25.6523 10.2258 26.2799 11.6964 26.2799 13.4404C26.2799 15.1844 25.6494 16.6522 24.3884 17.8439C23.1274 19.0356 21.5784 19.6314 19.7414 19.6314ZM19.7671 37.5C17.007 37.5 14.4283 37.0132 12.0311 36.0397C9.63385 35.0661 7.54209 33.7295 5.75581 32.0299C3.96957 30.3303 2.5637 28.3472 1.5382 26.0805C0.512732 23.8139 0 21.3717 0 18.7541C0 16.1365 0.512732 13.693 1.5382 11.4236C2.5637 9.15419 3.97156 7.16969 5.76179 5.4701C7.55205 3.77049 9.64096 2.43389 12.0285 1.46031C14.4161 0.486771 16.9885 0 19.7457 0C22.5029 0 25.0767 0.486771 27.4671 1.46031C29.8576 2.43389 31.9479 3.77049 33.7382 5.4701C35.5284 7.16969 36.9363 9.15457 37.9618 11.4247C38.9873 13.6949 39.5 16.1312 39.5 18.7337C39.5 21.3541 38.9873 23.8022 37.9618 26.0781C36.9363 28.3539 35.5284 30.3398 33.7382 32.0356C31.9479 33.7314 29.8572 35.0661 27.4659 36.0397C25.0747 37.0132 22.5085 37.5 19.7671 37.5ZM19.75 35.7372C21.8028 35.7372 23.8378 35.4 25.8551 34.7256C27.8723 34.0512 29.6653 33.0654 31.2343 31.7682C29.6653 30.6081 27.9084 29.694 25.9634 29.0258C24.0184 28.3576 21.9473 28.0235 19.75 28.0235C17.5527 28.0235 15.4746 28.3509 13.5155 29.0057C11.5565 29.6606 9.81592 30.5814 8.29385 31.7682C9.84404 33.0654 11.6277 34.0512 13.6449 34.7256C15.6622 35.4 17.6972 35.7372 19.75 35.7372ZM19.754 17.8686C21.0849 17.8686 22.1958 17.4444 23.0867 16.5961C23.9776 15.7479 24.4231 14.692 24.4231 13.4284C24.4231 12.1649 23.9763 11.1102 23.0828 10.2644C22.1892 9.41863 21.077 8.99573 19.7461 8.99573C18.4151 8.99573 17.3042 9.41986 16.4133 10.2681C15.5224 11.1164 15.0769 12.1723 15.0769 13.4359C15.0769 14.6994 15.5237 15.7541 16.4172 16.5999C17.3108 17.4457 18.423 17.8686 19.754 17.8686Z" fill="white"/>
</svg>
