<svg width="43" height="41" viewBox="0 0 43 41" fill="none" xmlns="http://www.w3.org/2000/svg">
<mask id="mask0_78_17" style="mask-type:alpha" maskUnits="userSpaceOnUse" x="0" y="0" width="43" height="41">
<rect width="43" height="41" fill="#D9D9D9"/>
</mask>
<g mask="url(#mask0_78_17)">
<path d="M8.95826 34.1667V18.5453L5.49205 21.0914L4.41016 19.7379L8.95826 16.4V11.8926H10.7499V15.0761L21.4999 7.26046L38.5897 19.7379L37.5078 21.0816L34.0416 18.5453V34.1667H8.95826ZM10.7499 32.4584H19.0191V24.3109H23.9807V32.4584H32.2499V17.2542L21.4999 9.43858L10.7499 17.2542V32.4584ZM8.95826 9.8558C8.95826 8.82641 9.30281 7.94487 9.99191 7.21117C10.681 6.47747 11.6687 6.11062 12.9551 6.11062C13.7383 6.11062 14.3016 5.91405 14.6451 5.5209C14.9885 5.12776 15.1602 4.64537 15.1602 4.07373H16.9519C16.9519 5.10312 16.6073 5.98466 15.9182 6.71836C15.2291 7.45209 14.2414 7.81895 12.9551 7.81895C12.1718 7.81895 11.6084 8.01551 11.265 8.40863C10.9216 8.80177 10.7499 9.28416 10.7499 9.8558H8.95826Z" fill="white"/>
</g>
</svg>
