<svg width="39" height="37" viewBox="0 0 39 37" fill="none" xmlns="http://www.w3.org/2000/svg">
<mask id="mask0_78_29" style="mask-type:alpha" maskUnits="userSpaceOnUse" x="0" y="0" width="39" height="37">
<rect width="38.7314" height="36.7314" fill="#D9D9D9"/>
</mask>
<g mask="url(#mask0_78_29)">
<path d="M17.0445 24.3465L27.3666 14.5573L26.2245 13.4742L17.0445 22.1803L12.4451 17.8184L11.303 18.9015L17.0445 24.3465ZM19.3713 32.1401C17.3628 32.1401 15.4745 31.7787 13.7064 31.0558C11.9383 30.3329 10.4002 29.3519 9.09229 28.1126C7.78438 26.8734 6.74894 25.4162 5.98599 23.741C5.22303 22.0657 4.84155 20.2757 4.84155 18.371C4.84155 16.4662 5.22267 14.6754 5.9849 12.9986C6.74715 11.3218 7.78163 9.86319 9.08833 8.62279C10.395 7.38242 11.9316 6.40045 13.6981 5.67689C15.4645 4.95333 17.352 4.59155 19.3604 4.59155C21.3689 4.59155 23.2572 4.95299 25.0253 5.67586C26.7934 6.39875 28.3315 7.37981 29.6394 8.61904C30.9473 9.85827 31.9827 11.3155 32.7457 12.9907C33.5087 14.666 33.8901 16.456 33.8901 18.3607C33.8901 20.2655 33.509 22.0563 32.7468 23.7331C31.9845 25.4099 30.9501 26.8685 29.6434 28.1089C28.3367 29.3493 26.8001 30.3312 25.0336 31.0548C23.2671 31.7784 21.3797 32.1401 19.3713 32.1401ZM19.3658 30.6097C22.97 30.6097 26.0228 29.4235 28.5242 27.0513C31.0256 24.6791 32.2763 21.7839 32.2763 18.3658C32.2763 14.9478 31.0256 12.0526 28.5242 9.68039C26.0228 7.30815 22.97 6.12203 19.3658 6.12203C15.7617 6.12203 12.7089 7.30815 10.2075 9.68039C7.70607 12.0526 6.45536 14.9478 6.45536 18.3658C6.45536 21.7839 7.70607 24.6791 10.2075 27.0513C12.7089 29.4235 15.7617 30.6097 19.3658 30.6097Z" fill="white"/>
</g>
</svg>
