<svg width="41" height="39" viewBox="0 0 41 39" fill="none" xmlns="http://www.w3.org/2000/svg">
<mask id="mask0_78_107" style="mask-type:alpha" maskUnits="userSpaceOnUse" x="0" y="0" width="41" height="39">
<rect width="41" height="39" fill="#D9D9D9"/>
</mask>
<g mask="url(#mask0_78_107)">
<path d="M5.09082 30.5003V28.0628H8.50749V10.6878C8.50749 9.96589 8.77769 9.34792 9.31809 8.83385C9.85852 8.31978 10.5082 8.06274 11.2671 8.06274H34.9867V9.68778H11.2671C10.9605 9.68778 10.7086 9.78153 10.5115 9.96903C10.3144 10.1565 10.2158 10.3961 10.2158 10.6878V28.0628H19.6117V30.5003H5.09082ZM26.9802 30.5003C26.6212 30.5003 26.3108 30.3758 26.0491 30.1268C25.7874 29.8779 25.6565 29.5857 25.6565 29.2503V15.4378C25.6565 15.1023 25.7874 14.8101 26.0491 14.5612C26.3108 14.3122 26.6212 14.1878 26.9802 14.1878H34.5828C34.9419 14.1878 35.2522 14.3122 35.5139 14.5612C35.7757 14.8101 35.9065 15.1023 35.9065 15.4378V29.2503C35.9065 29.5857 35.7757 29.8779 35.5139 30.1268C35.2522 30.3758 34.9419 30.5003 34.5828 30.5003H26.9802ZM27.3648 28.0628H34.1982V15.8128H27.3648V28.0628Z" fill="white"/>
</g>
</svg>
