<svg width="45" height="43" viewBox="0 0 45 43" fill="none" xmlns="http://www.w3.org/2000/svg">
<mask id="mask0_78_59" style="mask-type:alpha" maskUnits="userSpaceOnUse" x="0" y="0" width="45" height="43">
<rect width="45" height="43" fill="#D9D9D9"/>
</mask>
<g mask="url(#mask0_78_59)">
<path d="M4.86768 33.3526V30.4032C4.86768 29.5717 5.09303 28.8568 5.54375 28.2584C5.99447 27.6601 6.60018 27.1818 7.36086 26.8238C8.98721 26.0839 10.602 25.494 12.2054 25.0541C13.8088 24.6142 15.7379 24.3943 17.9927 24.3943C20.2475 24.3943 22.1766 24.6142 23.78 25.0541C25.3833 25.494 26.9981 26.0839 28.6245 26.8238C29.3852 27.1818 29.9909 27.6601 30.4416 28.2584C30.8923 28.8568 31.1177 29.5717 31.1177 30.4032V33.3526H4.86768ZM34.8677 33.3526V30.3206C34.8677 29.2823 34.6478 28.3023 34.2079 27.3804C33.7681 26.4586 33.1443 25.6676 32.3364 25.0076C33.2571 25.1867 34.1441 25.4354 34.9975 25.7535C35.8508 26.0716 36.6946 26.4294 37.5288 26.8268C38.3413 27.2173 38.9783 27.717 39.4398 28.3259C39.9013 28.9349 40.1321 29.5998 40.1321 30.3206V33.3526H34.8677ZM17.9927 20.3975C16.4458 20.3975 15.1216 19.8712 14.02 18.8186C12.9185 17.766 12.3677 16.5006 12.3677 15.0225C12.3677 13.5444 12.9185 12.279 14.02 11.2264C15.1216 10.1738 16.4458 9.64746 17.9927 9.64746C19.5395 9.64746 20.8638 10.1738 21.9653 11.2264C23.0669 12.279 23.6177 13.5444 23.6177 15.0225C23.6177 16.5006 23.0669 17.766 21.9653 18.8186C20.8638 19.8712 19.5395 20.3975 17.9927 20.3975ZM31.6225 15.0225C31.6225 16.5006 31.0717 17.766 29.9702 18.8186C28.8686 19.8712 27.5444 20.3975 25.9975 20.3975C25.9182 20.3975 25.8172 20.3889 25.6946 20.3717C25.572 20.3544 25.471 20.3355 25.3917 20.3148C26.0269 19.5714 26.515 18.7467 26.856 17.8407C27.1971 16.9348 27.3677 15.9939 27.3677 15.0182C27.3677 14.0425 27.1892 13.1102 26.8322 12.2213C26.4752 11.3323 25.9951 10.502 25.3917 9.73015C25.4927 9.69572 25.5936 9.67332 25.6946 9.66296C25.7956 9.65263 25.8965 9.64746 25.9975 9.64746C27.5444 9.64746 28.8686 10.1738 29.9702 11.2264C31.0717 12.279 31.6225 13.5444 31.6225 15.0225ZM6.74267 31.5609H29.2427V30.4032C29.2427 29.9829 29.1327 29.6154 28.9128 29.3007C28.6928 28.986 28.298 28.6851 27.7282 28.398C26.3292 27.6836 24.8545 27.1363 23.304 26.7562C21.7535 26.376 19.983 26.1859 17.9927 26.1859C16.0023 26.1859 14.2319 26.376 12.6814 26.7562C11.1309 27.1363 9.65614 27.6836 8.25711 28.398C7.68739 28.6851 7.29255 28.986 7.07258 29.3007C6.85264 29.6154 6.74267 29.9829 6.74267 30.4032V31.5609ZM17.9927 18.6058C19.0239 18.6058 19.9067 18.255 20.6411 17.5532C21.3755 16.8515 21.7427 16.0079 21.7427 15.0225C21.7427 14.0371 21.3755 13.1935 20.6411 12.4918C19.9067 11.79 19.0239 11.4392 17.9927 11.4392C16.9614 11.4392 16.0786 11.79 15.3442 12.4918C14.6099 13.1935 14.2427 14.0371 14.2427 15.0225C14.2427 16.0079 14.6099 16.8515 15.3442 17.5532C16.0786 18.255 16.9614 18.6058 17.9927 18.6058Z" fill="white"/>
</g>
</svg>
