<svg width="37" height="35" viewBox="0 0 37 35" fill="none" xmlns="http://www.w3.org/2000/svg">
<mask id="mask0_78_65" style="mask-type:alpha" maskUnits="userSpaceOnUse" x="0" y="0" width="37" height="35">
<rect width="37" height="35" fill="#D9D9D9"/>
</mask>
<g mask="url(#mask0_78_65)">
<path d="M18.5432 25.1282C18.884 25.1282 19.1715 25.0169 19.4057 24.7943C19.6399 24.5717 19.757 24.2992 19.757 23.9768C19.757 23.6544 19.6394 23.3824 19.4041 23.1608C19.1687 22.9393 18.8807 22.8285 18.5399 22.8285C18.199 22.8285 17.9115 22.9398 17.6773 23.1625C17.4431 23.385 17.3259 23.6575 17.3259 23.98C17.3259 24.3023 17.4436 24.5743 17.6789 24.7959C17.9143 25.0174 18.2024 25.1282 18.5432 25.1282ZM17.7469 20.2989H19.2353C19.2748 19.6651 19.4008 19.15 19.6133 18.7536C19.8257 18.3572 20.263 17.8515 20.9252 17.2364C21.613 16.5857 22.1249 16.0029 22.4609 15.4878C22.7969 14.9727 22.9649 14.3765 22.9649 13.6992C22.9649 12.5498 22.538 11.6339 21.6842 10.9515C20.8304 10.2691 19.8204 9.92786 18.6542 9.92786C17.5453 9.92786 16.604 10.213 15.8303 10.7832C15.0564 11.3535 14.4897 12.0088 14.13 12.7492L15.5471 13.3045C15.7942 12.7735 16.1475 12.3042 16.607 11.8966C17.0665 11.489 17.7292 11.2852 18.5949 11.2852C19.595 11.2852 20.3253 11.5447 20.7858 12.0635C21.2463 12.5823 21.4766 13.153 21.4766 13.7756C21.4766 14.2804 21.3323 14.7315 21.0438 15.1288C20.7552 15.5261 20.3796 15.9258 19.9171 16.3277C19.0238 17.1074 18.4387 17.7683 18.162 18.3105C17.8853 18.8527 17.7469 19.5155 17.7469 20.2989ZM18.5052 30.625C16.5865 30.625 14.7826 30.2806 13.0935 29.5918C11.4045 28.903 9.93518 27.9682 8.68571 26.7874C7.43627 25.6065 6.44712 24.218 5.71827 22.6217C4.98942 21.0254 4.625 19.3198 4.625 17.5049C4.625 15.6899 4.98908 13.9835 5.71723 12.3858C6.44541 10.788 7.43365 9.39814 8.68193 8.21621C9.93022 7.03431 11.3981 6.09863 13.0856 5.40918C14.7731 4.71973 16.5762 4.375 18.4948 4.375C20.4135 4.375 22.2174 4.7194 23.9065 5.40819C25.5955 6.09701 27.0648 7.03183 28.3143 8.21264C29.5637 9.39345 30.5529 10.782 31.2817 12.3783C32.0106 13.9746 32.375 15.6802 32.375 17.4951C32.375 19.3101 32.0109 21.0165 31.2828 22.6142C30.5546 24.212 29.5664 25.6019 28.3181 26.7838C27.0698 27.9657 25.6019 28.9014 23.9144 29.5908C22.2269 30.2803 20.4238 30.625 18.5052 30.625ZM18.5 29.1667C21.9431 29.1667 24.8594 28.0365 27.249 25.776C29.6385 23.5156 30.8333 20.7569 30.8333 17.5C30.8333 14.2431 29.6385 11.4844 27.249 9.22396C24.8594 6.96354 21.9431 5.83333 18.5 5.83333C15.0569 5.83333 12.1406 6.96354 9.75104 9.22396C7.36146 11.4844 6.16667 14.2431 6.16667 17.5C6.16667 20.7569 7.36146 23.5156 9.75104 25.776C12.1406 28.0365 15.0569 29.1667 18.5 29.1667Z" fill="white"/>
</g>
</svg>
