<svg width="38" height="36" viewBox="0 0 38 36" fill="none" xmlns="http://www.w3.org/2000/svg">
<mask id="mask0_78_95" style="mask-type:alpha" maskUnits="userSpaceOnUse" x="0" y="0" width="38" height="36">
<rect width="38" height="35.9459" fill="#D9D9D9"/>
</mask>
<g mask="url(#mask0_78_95)">
<path d="M7.91634 5.99091V15.4757V15.4383V29.9549V5.99091ZM11.8747 20.2195H17.5686C17.7249 19.9334 17.8934 19.6704 18.074 19.4303C18.2547 19.1903 18.4475 18.9541 18.6526 18.7218H11.8747V20.2195ZM11.8747 26.2105H16.445C16.3943 25.9609 16.3593 25.7113 16.34 25.4616C16.3207 25.212 16.3171 24.9624 16.3293 24.7128H11.8747V26.2105ZM8.89069 31.4526C8.16196 31.4526 7.55349 31.2217 7.0653 30.7599C6.57711 30.2981 6.33301 29.7225 6.33301 29.0332V6.91259C6.33301 6.22325 6.57711 5.64768 7.0653 5.18587C7.55349 4.72407 8.16196 4.49316 8.89069 4.49316H21.3747L28.4997 11.233V15.7551C28.2419 15.6706 27.981 15.6106 27.7172 15.575C27.4533 15.5395 27.1863 15.5064 26.9163 15.4757V11.9819H20.583V5.99091H8.89069C8.64712 5.99091 8.42383 6.08692 8.22082 6.27893C8.01783 6.47096 7.91634 6.68218 7.91634 6.91259V29.0332C7.91634 29.2636 8.01783 29.4748 8.22082 29.6669C8.42383 29.8589 8.64712 29.9549 8.89069 29.9549H18.0344C18.2334 30.2467 18.4547 30.5141 18.6982 30.757C18.9418 30.9999 19.1976 31.2318 19.4655 31.4526H8.89069ZM26.1247 28.918C27.3751 28.918 28.4286 28.5128 29.2852 27.7025C30.1419 26.8922 30.5702 25.8956 30.5702 24.7128C30.5702 23.5299 30.1419 22.5333 29.2852 21.723C28.4286 20.9127 27.3751 20.5075 26.1247 20.5075C24.8742 20.5075 23.8207 20.9127 22.9641 21.723C22.1075 22.5333 21.6792 23.5299 21.6792 24.7128C21.6792 25.8956 22.1075 26.8922 22.9641 27.7025C23.8207 28.5128 24.8742 28.918 26.1247 28.918ZM34.1997 33.3824L29.8029 29.2233C29.2893 29.6112 28.7194 29.9069 28.0932 30.1104C27.467 30.314 26.8108 30.4157 26.1247 30.4157C24.45 30.4157 23.0265 29.8613 21.8542 28.7524C20.682 27.6435 20.0958 26.2969 20.0958 24.7128C20.0958 23.1286 20.682 21.7821 21.8542 20.6731C23.0265 19.5642 24.45 19.0098 26.1247 19.0098C27.7994 19.0098 29.2229 19.5642 30.3951 20.6731C31.5674 21.7821 32.1535 23.1286 32.1535 24.7128C32.1535 25.3618 32.0459 25.9825 31.8308 26.5749C31.6156 27.1673 31.303 27.7063 30.893 28.1921L35.2898 32.3513L34.1997 33.3824Z" fill="white"/>
</g>
</svg>
